<svg xmlns="http://www.w3.org/2000/svg" fill="#fff" width="16pt" height="16pt" viewBox="0 0 16 16"><g><path d="M9.504 15.297a.498.498 0 0 1-.5-.5v-4c0-.277-.227-.5-.5-.5h-1c-.277 0-.5.223-.5.5v4c0 .277-.227.5-.5.5h-4a.498.498 0 0 1-.5-.5v-5.5a.501.501 0 0 1 1 0v5h3v-3.5a1.5 1.5 0 0 1 1.5-1.5h1c.824 0 1.5.672 1.5 1.5v3.5h3v-5a.501.501 0 0 1 1 0v5.5c0 .277-.227.5-.5.5zm0 0"/><path d="M.504 8.797a.484.484 0 0 1-.356-.149.5.5 0 0 1 0-.707l6.793-6.789c.282-.285.66-.441 1.063-.441.398 0 .777.156 1.059.441l6.792 6.793a.5.5 0 1 1-.707.707L8.355 1.855a.493.493 0 0 0-.351-.144.496.496 0 0 0-.356.144L.855 8.648a.481.481 0 0 1-.351.149zm0 0"/></g></svg>
