<svg xmlns="http://www.w3.org/2000/svg" fill="currentColor" width="16pt" height="16pt" viewBox="0 0 16 16"><g><path d="M14.504 16.004a1.504 1.504 0 0 1-1.414-1l-.88-2.488-.358.308a.467.467 0 0 0-.137.196l-.817 2.043a1.499 1.499 0 0 1-1.949.835 1.5 1.5 0 0 1-.84-1.95l.82-2.046c.212-.523.548-.992.973-1.359l1.243-1.063-.293-.824a6.44 6.44 0 0 1-2.848.836V12.5a1.5 1.5 0 0 1-1.5 1.5h-6a.501.501 0 0 1 0-1h6c.277 0 .5-.227.5-.5V9.418a1.5 1.5 0 0 1 .504-2.914c2 0 2.644-1.152 2.672-1.2a1.503 1.503 0 0 1 1.328-.796h.105a1.514 1.514 0 0 1 1.305.988l3 8.504c.004.008.008.027.012.031.12.36.097.762-.075 1.117a1.475 1.475 0 0 1-.851.77c-.16.059-.328.086-.5.086zm-2.063-4.84a.485.485 0 0 1 .47.332l1.12 3.176a.502.502 0 0 0 .946-.336l-3-8.504a.503.503 0 0 0-.434-.324h-.031a.503.503 0 0 0-.45.27c-.039.07-.964 1.726-3.554 1.726a.498.498 0 0 0-.024.996h.02a.19.19 0 0 1 .047.004h.117c1.125 0 2.246-.36 3.152-1.016a.494.494 0 0 1 .293-.093c.051 0 .102.007.153.02a.5.5 0 0 1 .32.312l.617 1.746a.51.51 0 0 1-.148.547l-1.5 1.285a2.562 2.562 0 0 0-.696.968l-.82 2.047a.498.498 0 0 0 .465.684c.207 0 .39-.121.465-.313l.816-2.043c.09-.222.235-.425.418-.582l.914-.78a.483.483 0 0 1 .324-.122zm0 0M1.004 15.754a.75.75 0 1 1 0-1.5.75.75 0 0 1 0 1.5zm0 0"/><path d="M5.504 15.754a.75.75 0 1 1 .004 0h-.004zm0 0M11.004 5.004A2.254 2.254 0 0 1 8.762 2.94a.502.502 0 0 1-.242-.559l.5-2a.498.498 0 0 1 .484-.378h3c.23 0 .43.156.484.379l.5 2a.479.479 0 0 1-.09.426.55.55 0 0 1-.152.132 2.256 2.256 0 0 1-2.242 2.063zm-1.223-2a1.249 1.249 0 0 0 2.45 0zm2.582-1l-.25-1H9.895l-.25 1zm0 0M.836 12.004a.836.836 0 0 1-.832-.836V8.836c0-.461.375-.832.832-.832h.668v-.5a1.5 1.5 0 0 1 3 0v.5h.668c.457 0 .832.371.832.832v2.332c0 .46-.375.836-.832.836zm4.168-1v-2h-4v2zm-1.5-3v-.5a.501.501 0 0 0-1 0v.5zm0 0"/></g></svg>
